<svg width="52" height="54" viewBox="0 0 52 54" fill="none" xmlns="http://www.w3.org/2000/svg">
<g clip-path="url(#clip0)">
<path d="M15.817 19.25L17.117 20.15L17.317 21.55L20.917 22.95L22.117 22.45L21.717 25.55L23.317 21.25L15.817 19.25Z" fill="#00983A"/>
<path d="M28.217 21.25L29.817 25.55L29.417 22.45L30.617 22.95L34.217 21.55L34.417 20.15L35.717 19.25L28.217 21.25Z" fill="#00983A"/>
<path d="M46.217 37.55L48.117 27.35H37.417L34.317 30.25V30.75L46.217 37.55Z" fill="#00983A"/>
<path d="M34.517 32.45L35.017 38.15L33.717 38.95L37.617 45.75L45.717 38.95L34.517 32.45Z" fill="#00983A"/>
<path d="M17.1123 30.9V30.4L14.0123 27.5H3.31232L5.21232 37.7L17.1123 30.9Z" fill="#00983A"/>
<path d="M17.8171 38.95L16.5171 38.15L17.0171 32.45L5.81708 38.95L13.9171 45.75L17.8171 38.95Z" fill="#00983A"/>
<path d="M32.4171 39.55L30.8171 40.45L26.4171 38.75V35.75L30.5171 32.65L26.7171 31.85L25.8171 32.35L24.9171 31.85L21.1171 32.65L25.2171 35.75V38.75L20.7171 40.45L19.0171 39.55L14.9171 46.65L21.2171 51.95C22.3171 52.85 23.6171 53.45 25.0171 53.55V45.35L21.2171 41.25L25.8171 40.55L30.4171 41.25L26.6171 45.35V53.55C27.9171 53.45 29.3171 52.85 30.4171 51.95L36.7171 46.65L32.4171 39.55Z" fill="#00983A"/>
<path d="M39.017 19.75L40.017 24.85L39.017 25.85H48.417L50.817 12.95L39.017 19.75Z" fill="#00983A"/>
<path d="M38.917 2.35C36.517 1.05 33.917 0.449997 31.317 0.449997H26.517V12.85C28.317 11.85 30.817 10.55 30.917 10.45C31.017 10.35 32.017 11.15 33.317 12.15L38.917 2.35Z" fill="#00983A"/>
<path d="M40.2171 2.95L34.4171 13.05C36.4171 14.65 38.4171 16.35 38.4171 16.35L38.8171 18.25L51.2171 11.05C51.4171 9.75 50.8171 8.45 49.6171 7.85L40.2171 2.95Z" fill="#00983A"/>
<path d="M25.017 0.449997H20.217C17.517 0.449997 14.917 1.05 12.617 2.35L18.317 12.25C19.617 11.25 20.617 10.45 20.717 10.55C20.817 10.65 23.317 11.95 25.117 12.95V0.449997H25.017Z" fill="#00983A"/>
<path d="M12.717 18.25L13.117 16.35C13.117 16.35 15.217 14.65 17.117 13.05L11.317 2.95L1.91703 7.85C0.717026 8.45 0.117026 9.75 0.417026 11.05L12.717 18.25Z" fill="#00983A"/>
<path d="M12.517 19.75L0.717041 12.95L3.11704 25.85H12.517L11.517 24.85L12.517 19.75Z" fill="#00983A"/>
</g>
<defs>
<clipPath id="clip0">
<rect width="50.9" height="53.1" fill="white" transform="translate(0.317017 0.449997)"/>
</clipPath>
</defs>
</svg>
