<svg width="27" height="27" viewBox="0 0 27 27" fill="none" xmlns="http://www.w3.org/2000/svg">
<path fill-rule="evenodd" clip-rule="evenodd" d="M26.7416 12.7895C26.6124 5.68421 20.6699 0 13.5646 0C6.45933 0 0.645933 5.55502 0.38756 12.5311C0.38756 12.6603 0.38756 12.9187 0.38756 13.0478C0.38756 15.5024 1.03349 17.8278 2.32536 19.8947L0 27L7.36364 24.6746C9.30143 25.7081 11.4976 26.3541 13.823 26.3541C21.1866 26.3541 27 20.4115 27 13.177C26.7416 13.0478 26.7416 12.9187 26.7416 12.7895ZM13.4354 24.1579C11.11 24.1579 9.04306 23.512 7.36364 22.3493L3.10048 23.7703L4.52153 19.6364C3.22966 17.8278 2.45454 15.6316 2.45454 13.177C2.45454 12.7895 2.45454 12.4019 2.45454 12.1435C2.97129 6.58852 7.75119 2.19617 13.5646 2.19617C19.378 2.19617 24.1579 6.7177 24.6746 12.4019C24.6746 12.6603 24.6746 12.9187 24.6746 13.3062C24.5455 19.2488 19.6364 24.1579 13.4354 24.1579Z" fill="white"/>
<path fill-rule="evenodd" clip-rule="evenodd" d="M19.5072 15.7609C19.1196 15.6318 17.5694 14.8566 17.311 14.7275C17.0526 14.5983 16.7943 14.5983 16.5359 14.8566C16.2775 15.115 15.6316 15.8901 15.5024 16.1485C15.3732 16.4069 15.1148 16.4069 14.8565 16.2777C14.5981 16.1485 13.4354 15.761 12.2727 14.7275C11.3684 13.8232 10.5933 12.7897 10.4641 12.5313C10.3349 12.2729 10.4641 12.0145 10.5933 11.8853C10.7225 11.7562 10.8517 11.4978 11.11 11.3686L11.2392 11.2394C11.3684 11.1102 11.3684 10.981 11.4976 10.8519C11.6268 10.5935 11.4976 10.4643 11.4976 10.3351C11.3684 10.2059 10.7225 8.5265 10.4641 7.88056C10.2057 7.23463 9.94736 7.36382 9.68899 7.36382C9.5598 7.36382 9.30143 7.36382 9.04306 7.36382C8.78469 7.36382 8.52631 7.493 8.13875 7.75138C7.88038 8.00975 6.97607 8.91406 6.97607 10.4643C6.97607 10.8519 7.10526 11.2394 7.10526 11.4978C7.49282 12.6605 8.13875 13.5648 8.26794 13.694C8.39713 13.9523 10.4641 17.3112 13.823 18.6031C17.1818 19.8949 17.1818 19.5074 17.6986 19.3782C18.3445 19.3782 19.6364 18.6031 19.8947 17.8279C20.1531 17.0528 20.1531 16.4069 20.0239 16.2777C20.0239 16.0193 19.8947 15.8901 19.5072 15.7609Z" fill="white"/>
</svg>
